<?xml version="1.0" encoding="utf-8"?>
<!-- Generator: Adobe Illustrator 19.2.1, SVG Export Plug-In . SVG Version: 6.00 Build 0)  -->
<svg version="1.1" id="Слой_1" xmlns="http://www.w3.org/2000/svg" xmlns:xlink="http://www.w3.org/1999/xlink" x="0px" y="0px"
	 viewBox="0 0 28 28" style="enable-background:new 0 0 28 28;" xml:space="preserve">
<style type="text/css">
	.st0{fill:none;}
	.st1{fill:#4BB34B;}
</style>
<title>add_circle_outline_28</title>
<desc>Created with Sketch.</desc>
<g id="add_circle_outline_28">
	<polygon class="st0" points="0,0 28,0 28,28 0,28 	"/>
	<path id="_x21B3_-Icon-Color" class="st1" d="M14,2c6.6,0,12,5.4,12,12s-5.4,12-12,12S2,20.6,2,14S7.4,2,14,2z M14,4
		C8.5,4,4,8.5,4,14s4.5,10,10,10s10-4.5,10-10S19.5,4,14,4z"/>
</g>
<g id="Page-2">
	<g id="education_24">
		<rect id="Bounds" x="6.3" y="6.3" class="st0" width="15.6" height="15.6"/>
		<path id="Mask" class="st1" d="M20.5,12L20.5,12v4c0,0.3-0.3,0.7-0.7,0.7s-0.7-0.3-0.7-0.7v-2.9l-4.9,2.8c-0.2,0.1-0.4,0.1-0.7,0
			l-5.8-3.4c-0.3-0.2-0.4-0.6-0.3-0.9c0.1-0.1,0.2-0.2,0.3-0.3l5.8-3.4c0.2-0.1,0.4-0.1,0.7,0l5.8,3.4C20.4,11.6,20.5,11.7,20.5,12z
			 M18.2,15.1v1.4c0,1.8-1.9,3.3-4.2,3.3s-4.2-1.4-4.2-3.3v-1.4l3.3,1.9c0.6,0.3,1.3,0.3,1.9,0L18.2,15.1z"/>
	</g>
</g>
</svg>
